<svg width="1200" height="1200" xmlns="http://www.w3.org/2000/svg" xmlns:xlink="http://www.w3.org/1999/xlink" version="1.1"><g transform="scale(12) translate(0, -0.0005016326904296875)">                        <g fill="#070e65"><g xmlns="http://www.w3.org/2000/svg" display="none"><g display="inline"><g><line stroke="#070e65" stroke-width="2" stroke-miterlimit="10" x1="89.447" y1="89.875" x2="75.502" y2="46.933"/><line stroke="#070e65" stroke-width="2" stroke-miterlimit="10" x1="94.084" y1="89.862" x2="80.691" y2="48.624"/><line stroke="#070e65" stroke-width="2" stroke-miterlimit="10" x1="97.293" y1="85.461" x2="85.879" y2="50.314"/><line stroke="#070e65" stroke-width="2" stroke-miterlimit="10" x1="100.5" y1="81.047" x2="91.066" y2="51.999"/><line stroke="#070e65" stroke-width="2" stroke-miterlimit="10" x1="103.705" y1="76.631" x2="96.124" y2="53.285"/></g><g><line stroke="#070e65" stroke-width="2" stroke-miterlimit="10" x1="75.505" y1="46.938" x2="112.021" y2="20.414"/><line stroke="#070e65" stroke-width="2" stroke-miterlimit="10" x1="76.938" y1="51.353" x2="112.021" y2="25.869"/><line stroke="#070e65" stroke-width="2" stroke-miterlimit="10" x1="82.125" y1="53.038" x2="112.02" y2="31.323"/><line stroke="#070e65" stroke-width="2" stroke-miterlimit="10" x1="87.311" y1="54.726" x2="112.02" y2="36.778"/><line stroke="#070e65" stroke-width="2" stroke-miterlimit="10" x1="92.5" y1="56.41" x2="112.357" y2="41.986"/><line stroke="#070e65" stroke-width="2" stroke-miterlimit="10" x1="97.687" y1="58.097" x2="112.075" y2="47.646"/></g><g><line stroke="#070e65" stroke-width="2" stroke-miterlimit="10" x1="134.584" y1="89.87" x2="89.445" y2="89.87"/><line stroke="#070e65" stroke-width="2" stroke-miterlimit="10" x1="136.018" y1="85.457" x2="92.652" y2="85.457"/><line stroke="#070e65" stroke-width="2" stroke-miterlimit="10" x1="132.812" y1="81.045" x2="95.859" y2="81.045"/><line stroke="#070e65" stroke-width="2" stroke-miterlimit="10" x1="129.606" y1="76.631" x2="98.304" y2="76.631"/></g></g><g display="inline"><g><line stroke="#070e65" stroke-width="2" stroke-miterlimit="10" x1="0.911" y1="96.951" x2="-15.888" y2="45.224"/><line stroke="#070e65" stroke-width="2" stroke-miterlimit="10" x1="3.965" y1="92.07" x2="-10.593" y2="47.239"/><line stroke="#070e65" stroke-width="2" stroke-miterlimit="10" x1="7.02" y1="87.189" x2="-5.3" y2="49.255"/><line stroke="#070e65" stroke-width="2" stroke-miterlimit="10" x1="10.075" y1="82.307" x2="-0.004" y2="51.271"/><line stroke="#070e65" stroke-width="2" stroke-miterlimit="10" x1="13.129" y1="77.427" x2="5.289" y2="53.285"/><line stroke="#070e65" stroke-width="2" stroke-miterlimit="10" x1="16.184" y1="72.545" x2="10.584" y2="55.303"/><line stroke="#070e65" stroke-width="2" stroke-miterlimit="10" x1="19.238" y1="67.664" x2="15.878" y2="57.318"/></g><g><line stroke="#070e65" stroke-width="2" stroke-miterlimit="10" x1="-21.358" y1="51.317" x2="22.645" y2="19.354"/><line stroke="#070e65" stroke-width="2" stroke-miterlimit="10" x1="-15.772" y1="52.714" x2="22.364" y2="25.013"/><line stroke="#070e65" stroke-width="2" stroke-miterlimit="10" x1="-10.187" y1="54.11" x2="22.083" y2="30.67"/><line stroke="#070e65" stroke-width="2" stroke-miterlimit="10" x1="-4.599" y1="55.507" x2="21.803" y2="36.329"/><line stroke="#070e65" stroke-width="2" stroke-miterlimit="10" x1="0.986" y1="56.903" x2="21.522" y2="41.986"/><line stroke="#070e65" stroke-width="2" stroke-miterlimit="10" x1="6.573" y1="58.3" x2="21.24" y2="47.646"/><line stroke="#070e65" stroke-width="2" stroke-miterlimit="10" x1="12.159" y1="59.696" x2="20.96" y2="53.304"/></g><g><line stroke="#070e65" stroke-width="2" stroke-miterlimit="10" x1="15.159" y1="16.035" x2="59.156" y2="48.006"/><line stroke="#070e65" stroke-width="2" stroke-miterlimit="10" x1="15.557" y1="21.779" x2="53.688" y2="49.487"/><line stroke="#070e65" stroke-width="2" stroke-miterlimit="10" x1="15.956" y1="27.523" x2="48.221" y2="50.969"/><line stroke="#070e65" stroke-width="2" stroke-miterlimit="10" x1="16.354" y1="33.269" x2="42.753" y2="52.451"/><line stroke="#070e65" stroke-width="2" stroke-miterlimit="10" x1="16.752" y1="39.012" x2="37.285" y2="53.933"/><line stroke="#070e65" stroke-width="2" stroke-miterlimit="10" x1="17.15" y1="44.757" x2="31.816" y2="55.413"/><line stroke="#070e65" stroke-width="2" stroke-miterlimit="10" x1="17.549" y1="50.501" x2="26.349" y2="56.896"/></g><g><line stroke="#070e65" stroke-width="2" stroke-miterlimit="10" x1="60" y1="39.86" x2="43.191" y2="91.585"/><line stroke="#070e65" stroke-width="2" stroke-miterlimit="10" x1="54.66" y1="42.015" x2="40.093" y2="86.843"/><line stroke="#070e65" stroke-width="2" stroke-miterlimit="10" x1="49.32" y1="44.169" x2="36.994" y2="82.101"/><line stroke="#070e65" stroke-width="2" stroke-miterlimit="10" x1="43.979" y1="46.323" x2="33.895" y2="77.358"/><line stroke="#070e65" stroke-width="2" stroke-miterlimit="10" x1="38.641" y1="48.477" x2="30.796" y2="72.616"/><line stroke="#070e65" stroke-width="2" stroke-miterlimit="10" x1="33.3" y1="50.631" x2="27.697" y2="67.873"/><line stroke="#070e65" stroke-width="2" stroke-miterlimit="10" x1="27.96" y1="52.785" x2="24.598" y2="63.131"/></g><g><line stroke="#070e65" stroke-width="2" stroke-miterlimit="10" x1="51.199" y1="89.87" x2="-3.188" y2="89.87"/><line stroke="#070e65" stroke-width="2" stroke-miterlimit="10" x1="47.5" y1="85.457" x2="0.364" y2="85.457"/><line stroke="#070e65" stroke-width="2" stroke-miterlimit="10" x1="43.801" y1="81.045" x2="3.917" y2="81.045"/><line stroke="#070e65" stroke-width="2" stroke-miterlimit="10" x1="40.102" y1="76.631" x2="7.469" y2="76.631"/><line stroke="#070e65" stroke-width="2" stroke-miterlimit="10" x1="36.403" y1="72.219" x2="11.021" y2="72.219"/><line stroke="#070e65" stroke-width="2" stroke-miterlimit="10" x1="32.704" y1="67.806" x2="14.575" y2="67.806"/><line stroke="#070e65" stroke-width="2" stroke-miterlimit="10" x1="29.005" y1="63.393" x2="18.127" y2="63.393"/></g></g></g><g xmlns="http://www.w3.org/2000/svg"><path d="M95,48.905l-2.115-1.221L83.742,63.52h-3.666l11.519-19.947l-2.115-1.221L77.269,63.52h-3.677L88.188,38.24l-2.113-1.221   l-15.251,26.5h-3.716l17.674-30.612l-2.115-1.221L64.288,63.52l-3.664,0.001l20.753-35.945l-9.826-17.094l-2.115,1.221   l9.143,15.837l-1.832,3.172L65.229,10.765l-2.113,1.221l12.223,21.164l-1.835,3.178L58.909,11.048l-2.114,1.221l15.324,26.458   l-1.857,3.217L52.589,11.331l-2.115,1.221l18.377,31.834l-1.831,3.173L46.268,11.614l-19.716-0.036v2.441h18.285l1.833,3.174   H23.636v2.44h24.441l1.833,3.175H20.721v2.441h30.577v-0.039l1.855,3.214H17.806v2.441h36.756l1.832,3.173H14.891L5,51.095   l2.115,1.221l9.142-15.835h3.666L8.405,56.428l2.115,1.221L22.75,36.48h3.659L11.812,61.76l2.113,1.221l15.29-26.479l-0.037-0.021   h3.714L15.218,67.093l2.115,1.221L35.711,36.48h3.665L18.624,72.425l9.826,17.094l2.113-1.221L21.42,72.464l1.833-3.174   l11.516,19.945l2.115-1.221L24.666,66.842l1.83-3.169l14.593,25.279l2.115-1.221L27.918,61.252l1.82-3.194l17.673,30.611   l2.115-1.221L31.148,55.615l1.832-3.172l20.752,35.942l0.011-0.006l-0.011,0.043h19.716v-2.441H55.164l-1.832-3.174h23.031v-2.44   h-24.44l-1.833-3.176l29.189,0.001v-2.441L48.702,74.75l-1.855-3.175h35.348v-2.441H45.437l-1.832-3.172l41.504-0.001L95,48.905z    M42.196,63.521l-7.806-13.52l7.806-13.521h15.609l7.806,13.521l-7.805,13.52H42.196z"/></g></g>        </g></svg>